<mxfile host="65bd71144e">
    <diagram id="txchBWapSVPzbpAoI_4P" name="Model">
        <mxGraphModel dx="827" dy="891" grid="0" gridSize="10" guides="1" tooltips="1" connect="1" arrows="1" fold="1" page="0" pageScale="1" pageWidth="850" pageHeight="1100" math="0" shadow="0">
            <root>
                <mxCell id="0"/>
                <mxCell id="1" parent="0"/>
                <mxCell id="49" value="model" style="shape=folder;fontStyle=1;tabWidth=100;tabHeight=20;tabPosition=left;html=1;boundedLbl=1;labelInHeader=1;container=1;collapsible=0;recursiveResize=0;" parent="1" vertex="1">
                    <mxGeometry x="260" y="-50" width="380" height="530" as="geometry"/>
                </mxCell>
                <mxCell id="29" value="«interface»&lt;br&gt;&lt;b&gt;Payload&lt;/b&gt;" style="html=1;fillColor=#647687;strokeColor=#314354;fontColor=#ffffff;" parent="49" vertex="1">
                    <mxGeometry x="70" y="450" width="110" height="50" as="geometry"/>
                </mxCell>
                <mxCell id="60" value="payload" style="html=1;fillColor=#647687;strokeColor=#314354;fontColor=#ffffff;" parent="49" vertex="1">
                    <mxGeometry x="70" y="420" width="110" height="30" as="geometry"/>
                </mxCell>
                <mxCell id="61" value="«interface»&lt;br&gt;&lt;b&gt;Service&lt;/b&gt;" style="html=1;fillColor=#647687;fontColor=#ffffff;strokeColor=#314354;" parent="49" vertex="1">
                    <mxGeometry x="20" y="240" width="110" height="50" as="geometry"/>
                </mxCell>
                <mxCell id="3" value="«interface»&lt;br&gt;&lt;b&gt;Client&lt;/b&gt;" style="html=1;" parent="1" vertex="1">
                    <mxGeometry x="410" y="80" width="110" height="50" as="geometry"/>
                </mxCell>
                <mxCell id="4" value="«interface»&lt;br&gt;&lt;b&gt;Broker&lt;/b&gt;" style="html=1;" parent="1" vertex="1">
                    <mxGeometry x="410" y="190" width="110" height="50" as="geometry"/>
                </mxCell>
                <mxCell id="13" value="" style="html=1;verticalAlign=bottom;labelBackgroundColor=none;endArrow=open;endFill=0;dashed=1;entryX=0.5;entryY=0;entryDx=0;entryDy=0;strokeColor=#00CC00;" parent="1" source="3" target="4" edge="1">
                    <mxGeometry width="160" relative="1" as="geometry">
                        <mxPoint x="465" y="150" as="sourcePoint"/>
                        <mxPoint x="870" y="380" as="targetPoint"/>
                    </mxGeometry>
                </mxCell>
                <mxCell id="18" value="1" style="edgeLabel;html=1;align=center;verticalAlign=middle;resizable=0;points=[];" parent="13" vertex="1" connectable="0">
                    <mxGeometry x="-0.5908" relative="1" as="geometry">
                        <mxPoint x="7" y="-4" as="offset"/>
                    </mxGeometry>
                </mxCell>
                <mxCell id="19" value="n" style="edgeLabel;html=1;align=center;verticalAlign=middle;resizable=0;points=[];" parent="13" vertex="1" connectable="0">
                    <mxGeometry x="0.5292" relative="1" as="geometry">
                        <mxPoint x="8" as="offset"/>
                    </mxGeometry>
                </mxCell>
                <mxCell id="14" value="«interface»&lt;br&gt;&lt;b&gt;Consumer&lt;/b&gt;" style="html=1;" parent="1" vertex="1">
                    <mxGeometry x="330" y="300" width="110" height="50" as="geometry"/>
                </mxCell>
                <mxCell id="15" value="" style="html=1;verticalAlign=bottom;labelBackgroundColor=none;endArrow=open;endFill=0;dashed=1;exitX=0.5;exitY=1;exitDx=0;exitDy=0;entryX=0.5;entryY=0;entryDx=0;entryDy=0;strokeColor=#00CC00;" parent="1" source="4" target="14" edge="1">
                    <mxGeometry width="160" relative="1" as="geometry">
                        <mxPoint x="475" y="150" as="sourcePoint"/>
                        <mxPoint x="395" y="200" as="targetPoint"/>
                    </mxGeometry>
                </mxCell>
                <mxCell id="20" value="1" style="edgeLabel;html=1;align=center;verticalAlign=middle;resizable=0;points=[];" parent="15" vertex="1" connectable="0">
                    <mxGeometry x="-0.6298" y="3" relative="1" as="geometry">
                        <mxPoint x="-15" y="-4" as="offset"/>
                    </mxGeometry>
                </mxCell>
                <mxCell id="22" value="n" style="edgeLabel;html=1;align=center;verticalAlign=middle;resizable=0;points=[];" parent="15" vertex="1" connectable="0">
                    <mxGeometry x="0.3862" y="-3" relative="1" as="geometry">
                        <mxPoint x="-17" as="offset"/>
                    </mxGeometry>
                </mxCell>
                <mxCell id="16" value="«interface»&lt;br&gt;&lt;b&gt;Producer&lt;/b&gt;" style="html=1;fillColor=#647687;fontColor=#ffffff;strokeColor=#314354;" parent="1" vertex="1">
                    <mxGeometry x="500" y="300" width="110" height="50" as="geometry"/>
                </mxCell>
                <mxCell id="17" value="" style="html=1;verticalAlign=bottom;labelBackgroundColor=none;endArrow=open;endFill=0;dashed=1;exitX=0.5;exitY=1;exitDx=0;exitDy=0;entryX=0.5;entryY=0;entryDx=0;entryDy=0;strokeColor=#00CC00;" parent="1" source="4" target="16" edge="1">
                    <mxGeometry width="160" relative="1" as="geometry">
                        <mxPoint x="395" y="250" as="sourcePoint"/>
                        <mxPoint x="315" y="280" as="targetPoint"/>
                    </mxGeometry>
                </mxCell>
                <mxCell id="21" value="1" style="edgeLabel;html=1;align=center;verticalAlign=middle;resizable=0;points=[];" parent="17" vertex="1" connectable="0">
                    <mxGeometry x="-0.4215" y="-2" relative="1" as="geometry">
                        <mxPoint x="7" y="-9" as="offset"/>
                    </mxGeometry>
                </mxCell>
                <mxCell id="23" value="n" style="edgeLabel;html=1;align=center;verticalAlign=middle;resizable=0;points=[];" parent="17" vertex="1" connectable="0">
                    <mxGeometry x="0.2042" y="1" relative="1" as="geometry">
                        <mxPoint x="24" y="3" as="offset"/>
                    </mxGeometry>
                </mxCell>
                <mxCell id="31" style="edgeStyle=none;html=1;entryX=1;entryY=1;entryDx=0;entryDy=0;strokeColor=#00CC00;" parent="1" source="24" target="14" edge="1">
                    <mxGeometry relative="1" as="geometry"/>
                </mxCell>
                <mxCell id="24" value="«interface»&lt;br&gt;&lt;b&gt;Messager&lt;/b&gt;" style="html=1;fillColor=#647687;fontColor=#ffffff;strokeColor=#314354;" parent="1" vertex="1">
                    <mxGeometry x="500" y="400" width="110" height="50" as="geometry"/>
                </mxCell>
                <mxCell id="25" value="" style="html=1;verticalAlign=bottom;labelBackgroundColor=none;endArrow=open;endFill=0;dashed=1;exitX=0.5;exitY=1;exitDx=0;exitDy=0;entryX=0.5;entryY=0;entryDx=0;entryDy=0;strokeColor=#00CC00;" parent="1" source="16" target="24" edge="1">
                    <mxGeometry width="160" relative="1" as="geometry">
                        <mxPoint x="475" y="250" as="sourcePoint"/>
                        <mxPoint x="565" y="310" as="targetPoint"/>
                    </mxGeometry>
                </mxCell>
                <mxCell id="26" value="1" style="edgeLabel;html=1;align=center;verticalAlign=middle;resizable=0;points=[];" parent="25" vertex="1" connectable="0">
                    <mxGeometry x="-0.4215" y="-2" relative="1" as="geometry">
                        <mxPoint x="7" y="-3" as="offset"/>
                    </mxGeometry>
                </mxCell>
                <mxCell id="27" value="n" style="edgeLabel;html=1;align=center;verticalAlign=middle;resizable=0;points=[];" parent="25" vertex="1" connectable="0">
                    <mxGeometry x="0.2042" y="1" relative="1" as="geometry">
                        <mxPoint x="5" y="4" as="offset"/>
                    </mxGeometry>
                </mxCell>
                <mxCell id="34" value="Common" style="shape=folder;fontStyle=1;tabWidth=110;tabHeight=20;tabPosition=left;html=1;boundedLbl=1;labelInHeader=1;container=1;collapsible=0;recursiveResize=0;fillColor=#76608a;fontColor=#ffffff;strokeColor=#432D57;" parent="1" vertex="1">
                    <mxGeometry x="70" y="115" width="150" height="80" as="geometry"/>
                </mxCell>
                <mxCell id="35" value="service" style="html=1;" parent="34" vertex="1">
                    <mxGeometry width="110" height="30" relative="1" as="geometry">
                        <mxPoint x="20" y="35" as="offset"/>
                    </mxGeometry>
                </mxCell>
                <mxCell id="36" value="" style="endArrow=block;startArrow=none;endFill=0;startFill=0;endSize=8;html=1;verticalAlign=bottom;dashed=1;labelBackgroundColor=none;exitX=1;exitY=0.5;exitDx=0;exitDy=0;entryX=0;entryY=0.5;entryDx=0;entryDy=0;" parent="1" source="35" target="61" edge="1">
                    <mxGeometry width="160" relative="1" as="geometry">
                        <mxPoint x="70" y="340" as="sourcePoint"/>
                        <mxPoint x="220" y="105" as="targetPoint"/>
                    </mxGeometry>
                </mxCell>
                <mxCell id="37" value="nats" style="shape=folder;fontStyle=1;tabWidth=110;tabHeight=20;tabPosition=left;html=1;boundedLbl=1;labelInHeader=1;container=1;collapsible=0;recursiveResize=0;fillColor=#f0a30a;fontColor=#000000;strokeColor=#BD7000;" parent="1" vertex="1">
                    <mxGeometry x="680" y="60" width="150" height="280" as="geometry"/>
                </mxCell>
                <mxCell id="38" value="nats_client" style="html=1;" parent="37" vertex="1">
                    <mxGeometry width="110" height="30" relative="1" as="geometry">
                        <mxPoint x="20" y="30" as="offset"/>
                    </mxGeometry>
                </mxCell>
                <mxCell id="39" value="nats_consumer" style="html=1;" parent="37" vertex="1">
                    <mxGeometry x="20" y="130" width="110" height="30" as="geometry"/>
                </mxCell>
                <mxCell id="40" value="nats_message" style="html=1;" parent="37" vertex="1">
                    <mxGeometry x="20" y="230" width="110" height="30" as="geometry"/>
                </mxCell>
                <mxCell id="41" value="nats_producer" style="html=1;" parent="37" vertex="1">
                    <mxGeometry x="20" y="180" width="110" height="30" as="geometry"/>
                </mxCell>
                <mxCell id="55" value="nats_broker" style="html=1;" parent="37" vertex="1">
                    <mxGeometry x="20" y="80" width="110" height="30" as="geometry"/>
                </mxCell>
                <mxCell id="42" value="«interface»&lt;br&gt;&lt;b&gt;Builder&lt;/b&gt;" style="html=1;" parent="1" vertex="1">
                    <mxGeometry x="410" y="-10" width="110" height="50" as="geometry"/>
                </mxCell>
                <mxCell id="43" value="" style="html=1;verticalAlign=bottom;labelBackgroundColor=none;endArrow=open;endFill=0;dashed=1;exitX=0.5;exitY=1;exitDx=0;exitDy=0;strokeColor=#00CC00;" parent="1" source="42" target="3" edge="1">
                    <mxGeometry width="160" relative="1" as="geometry">
                        <mxPoint x="475" y="140" as="sourcePoint"/>
                        <mxPoint x="475" y="200" as="targetPoint"/>
                    </mxGeometry>
                </mxCell>
                <mxCell id="44" value="1" style="edgeLabel;html=1;align=center;verticalAlign=middle;resizable=0;points=[];" parent="43" vertex="1" connectable="0">
                    <mxGeometry x="-0.5908" relative="1" as="geometry">
                        <mxPoint x="7" y="-2" as="offset"/>
                    </mxGeometry>
                </mxCell>
                <mxCell id="45" value="n" style="edgeLabel;html=1;align=center;verticalAlign=middle;resizable=0;points=[];" parent="43" vertex="1" connectable="0">
                    <mxGeometry x="0.5292" relative="1" as="geometry">
                        <mxPoint x="8" as="offset"/>
                    </mxGeometry>
                </mxCell>
                <mxCell id="46" value="Client" style="shape=folder;fontStyle=1;tabWidth=90;tabHeight=20;tabPosition=left;html=1;boundedLbl=1;labelInHeader=1;container=1;collapsible=0;recursiveResize=0;fillColor=#a0522d;fontColor=#ffffff;strokeColor=#6D1F00;" parent="1" vertex="1">
                    <mxGeometry x="680" y="-30" width="150" height="70" as="geometry"/>
                </mxCell>
                <mxCell id="47" value="builder" style="html=1;" parent="46" vertex="1">
                    <mxGeometry width="110" height="20" relative="1" as="geometry">
                        <mxPoint x="20" y="35" as="offset"/>
                    </mxGeometry>
                </mxCell>
                <mxCell id="48" value="" style="endArrow=block;startArrow=none;endFill=0;startFill=0;endSize=8;html=1;verticalAlign=bottom;dashed=1;labelBackgroundColor=none;exitX=0;exitY=0.5;exitDx=0;exitDy=0;entryX=1;entryY=0.5;entryDx=0;entryDy=0;" parent="1" source="47" target="42" edge="1">
                    <mxGeometry width="160" relative="1" as="geometry">
                        <mxPoint x="160" y="215" as="sourcePoint"/>
                        <mxPoint x="220" y="225" as="targetPoint"/>
                    </mxGeometry>
                </mxCell>
                <mxCell id="54" value="" style="endArrow=block;startArrow=none;endFill=0;startFill=0;endSize=8;html=1;verticalAlign=bottom;dashed=1;labelBackgroundColor=none;exitX=0;exitY=0.5;exitDx=0;exitDy=0;entryX=1;entryY=0.5;entryDx=0;entryDy=0;" parent="1" source="38" target="3" edge="1">
                    <mxGeometry width="160" relative="1" as="geometry">
                        <mxPoint x="710" y="25" as="sourcePoint"/>
                        <mxPoint x="530" y="25" as="targetPoint"/>
                    </mxGeometry>
                </mxCell>
                <mxCell id="56" value="" style="endArrow=block;startArrow=none;endFill=0;startFill=0;endSize=8;html=1;verticalAlign=bottom;dashed=1;labelBackgroundColor=none;exitX=0;exitY=0.5;exitDx=0;exitDy=0;entryX=1;entryY=0.25;entryDx=0;entryDy=0;" parent="1" source="55" target="4" edge="1">
                    <mxGeometry width="160" relative="1" as="geometry">
                        <mxPoint x="710" y="115" as="sourcePoint"/>
                        <mxPoint x="530" y="115" as="targetPoint"/>
                    </mxGeometry>
                </mxCell>
                <mxCell id="57" value="" style="endArrow=block;startArrow=none;endFill=0;startFill=0;endSize=8;html=1;verticalAlign=bottom;dashed=1;labelBackgroundColor=none;exitX=0;exitY=0.5;exitDx=0;exitDy=0;entryX=1;entryY=0;entryDx=0;entryDy=0;" parent="1" source="39" target="14" edge="1">
                    <mxGeometry width="160" relative="1" as="geometry">
                        <mxPoint x="710" y="115" as="sourcePoint"/>
                        <mxPoint x="530" y="115" as="targetPoint"/>
                    </mxGeometry>
                </mxCell>
                <mxCell id="58" value="" style="endArrow=block;startArrow=none;endFill=0;startFill=0;endSize=8;html=1;verticalAlign=bottom;dashed=1;labelBackgroundColor=none;exitX=0;exitY=0.5;exitDx=0;exitDy=0;entryX=1;entryY=0;entryDx=0;entryDy=0;" parent="1" source="41" target="16" edge="1">
                    <mxGeometry width="160" relative="1" as="geometry">
                        <mxPoint x="710" y="215" as="sourcePoint"/>
                        <mxPoint x="450" y="310" as="targetPoint"/>
                    </mxGeometry>
                </mxCell>
                <mxCell id="59" value="" style="endArrow=block;startArrow=none;endFill=0;startFill=0;endSize=8;html=1;verticalAlign=bottom;dashed=1;labelBackgroundColor=none;exitX=0;exitY=0.5;exitDx=0;exitDy=0;entryX=0.75;entryY=0;entryDx=0;entryDy=0;" parent="1" source="40" target="24" edge="1">
                    <mxGeometry width="160" relative="1" as="geometry">
                        <mxPoint x="720" y="225" as="sourcePoint"/>
                        <mxPoint x="460" y="320" as="targetPoint"/>
                    </mxGeometry>
                </mxCell>
                <mxCell id="62" value="«interface»&lt;br&gt;&lt;b&gt;Broker&lt;/b&gt;" style="html=1;fillColor=#647687;fontColor=#ffffff;strokeColor=#314354;" parent="1" vertex="1">
                    <mxGeometry x="410" y="190" width="110" height="50" as="geometry"/>
                </mxCell>
                <mxCell id="63" value="«interface»&lt;br&gt;&lt;b&gt;Client&lt;/b&gt;" style="html=1;fillColor=#647687;fontColor=#ffffff;strokeColor=#314354;" parent="1" vertex="1">
                    <mxGeometry x="410" y="80" width="110" height="50" as="geometry"/>
                </mxCell>
                <mxCell id="64" value="«interface»&lt;br&gt;&lt;b&gt;Builder&lt;/b&gt;" style="html=1;fillColor=#647687;fontColor=#ffffff;strokeColor=#314354;" parent="1" vertex="1">
                    <mxGeometry x="410" y="-10" width="110" height="50" as="geometry"/>
                </mxCell>
                <mxCell id="73" style="edgeStyle=none;html=1;entryX=0.5;entryY=1;entryDx=0;entryDy=0;strokeColor=#00CC00;" parent="1" source="65" target="61" edge="1">
                    <mxGeometry relative="1" as="geometry"/>
                </mxCell>
                <mxCell id="65" value="«interface»&lt;br&gt;&lt;b&gt;Consumer&lt;/b&gt;" style="html=1;fillColor=#647687;fontColor=#ffffff;strokeColor=#314354;" parent="1" vertex="1">
                    <mxGeometry x="330" y="300" width="110" height="50" as="geometry"/>
                </mxCell>
            </root>
        </mxGraphModel>
    </diagram>
    <diagram id="oyyvQNcP2Pon_5AIteIz" name="Components">
        <mxGraphModel dx="24800" dy="14740" grid="0" gridSize="10" guides="1" tooltips="1" connect="1" arrows="1" fold="1" page="0" pageScale="1" pageWidth="850" pageHeight="1100" math="0" shadow="0">
            <root>
                <mxCell id="fiM4bXcESfMof7FYmg8J-0"/>
                <mxCell id="fiM4bXcESfMof7FYmg8J-1" parent="fiM4bXcESfMof7FYmg8J-0"/>
            </root>
        </mxGraphModel>
    </diagram>
</mxfile>
